<svg width="23" height="26" viewBox="0 0 23 26" fill="none" xmlns="http://www.w3.org/2000/svg">
<path d="M11.2656 0C10.3753 0 9.65605 0.726172 9.65605 1.625V2.6C5.98437 3.35156 3.21804 6.63203 3.21804 10.5625V11.5172C3.21804 13.9039 2.34791 16.2094 0.77864 17.9969L0.406443 18.4184C-0.0160518 18.8957 -0.116646 19.5813 0.139869 20.1652C0.396383 20.7492 0.974798 21.125 1.60854 21.125H20.9226C21.5563 21.125 22.1297 20.7492 22.3912 20.1652C22.6528 19.5813 22.5472 18.8957 22.1247 18.4184L21.7525 17.9969C20.1832 16.2094 19.3131 13.909 19.3131 11.5172V10.5625C19.3131 6.63203 16.5467 3.35156 12.8751 2.6V1.625C12.8751 0.726172 12.1558 0 11.2656 0ZM13.544 25.0504C14.1476 24.441 14.4846 23.6133 14.4846 22.75H11.2656H8.04655C8.04655 23.6133 8.38354 24.441 8.9871 25.0504C9.59067 25.6598 10.4105 26 11.2656 26C12.1206 26 12.9404 25.6598 13.544 25.0504Z" fill="black"/>
</svg>
