<svg width="42" height="38" viewBox="0 0 42 38" fill="none" xmlns="http://www.w3.org/2000/svg">
<path d="M4.66667 2.375C2.09271 2.375 0 4.50508 0 7.125V9.5H42V7.125C42 4.50508 39.9073 2.375 37.3333 2.375H4.66667ZM42 16.625H0V30.875C0 33.4949 2.09271 35.625 4.66667 35.625H37.3333C39.9073 35.625 42 33.4949 42 30.875V16.625ZM8.16667 26.125H12.8333C13.475 26.125 14 26.6594 14 27.3125C14 27.9656 13.475 28.5 12.8333 28.5H8.16667C7.525 28.5 7 27.9656 7 27.3125C7 26.6594 7.525 26.125 8.16667 26.125ZM16.3333 27.3125C16.3333 26.6594 16.8583 26.125 17.5 26.125H26.8333C27.475 26.125 28 26.6594 28 27.3125C28 27.9656 27.475 28.5 26.8333 28.5H17.5C16.8583 28.5 16.3333 27.9656 16.3333 27.3125Z" fill="#FFFDFD"/>
</svg>
