<svg width="63" height="49" viewBox="0 0 63 49" fill="none" xmlns="http://www.w3.org/2000/svg">
<g clip-path="url(#clip0_2_73)">
<path d="M53.5402 24.0598C53.5402 23.9545 53.55 23.8492 53.55 23.7344C53.55 19.0832 49.6716 15.3125 44.8875 15.3125H40.95H31.5H29.925V16.8437V23.7344C29.925 25.8494 28.163 27.5625 25.9875 27.5625C23.812 27.5625 22.05 25.8494 22.05 23.7344V12.25H22.0894C22.4831 8.80469 25.4855 6.125 29.1375 6.125H40.1625C40.4381 6.125 40.7138 6.14414 40.9795 6.17285L44.9269 2.33515C47.0827 0.239255 50.5673 0.239255 52.7231 2.33515L60.4111 9.80957C62.5669 11.9055 62.5669 15.2934 60.4111 17.3893L53.55 24.0598H53.5402ZM18.9 12.25V23.7344C18.9 27.5434 22.0697 30.625 25.9875 30.625C29.9053 30.625 33.075 27.5434 33.075 23.7344V18.375H40.95H44.8875C47.9292 18.375 50.4 20.7771 50.4 23.7344C50.4 26.3375 48.4903 28.51 45.9506 28.998C46.7578 29.8211 47.25 30.9312 47.25 32.1562C47.25 34.6924 45.1336 36.75 42.525 36.75H42.2592C42.4364 37.2285 42.525 37.7453 42.525 38.2812C42.525 40.8174 40.4086 42.875 37.8 42.875H22.05C21.9614 42.875 21.8728 42.875 21.7842 42.8654L18.0731 46.4734C15.9173 48.5693 12.4327 48.5693 10.2769 46.4734L2.58891 39.0086C0.433131 36.9127 0.433131 33.5248 2.58891 31.4289L9.45001 24.7584V21.4375C9.45001 16.3652 13.6828 12.25 18.9 12.25Z" fill="white"/>
</g>
<defs>
<clipPath id="clip0_2_73">
<rect width="63" height="49" fill="white"/>
</clipPath>
</defs>
</svg>
