<svg width="30" height="26" viewBox="0 0 30 26" fill="none" xmlns="http://www.w3.org/2000/svg">
<g clip-path="url(#clip0_2_53)">
<path d="M28.3229 14.6047C29.2083 14.6047 29.9896 13.8938 29.9896 12.9746C30.0417 12.5176 29.8333 12.1113 29.4167 11.7559L26.6667 9.39453V3.25C26.6667 2.35117 25.9219 1.625 25 1.625H23.3333C22.4115 1.625 21.6667 2.35117 21.6667 3.25V5.11367L16.1198 0.355469C15.8073 0.101562 15.3906 0 15.026 0C14.6615 0 14.2448 0.0507812 13.8802 0.40625L0.520833 11.7559C0.15625 12.1113 0 12.5176 0 12.9746C0 13.8887 0.729167 14.6047 1.66667 14.6047H3.33333V18.1441C3.32812 18.1898 3.32813 18.2355 3.32813 18.2863V23.9688C3.32813 25.091 4.26042 26 5.41146 26H6.24479C6.30729 26 6.36979 25.9949 6.43229 25.9898C6.51042 25.9949 6.58854 26 6.66667 26H8.33333H9.58333C10.7344 26 11.6667 25.091 11.6667 23.9688V22.75V19.5C11.6667 18.6012 12.4115 17.875 13.3333 17.875H16.6667C17.5885 17.875 18.3333 18.6012 18.3333 19.5V22.75V23.9688C18.3333 25.091 19.2656 26 20.4167 26H21.6667H23.3594C23.4323 26 23.5052 26 23.5781 25.9949C23.6354 26 23.6927 26 23.75 26H24.5833C25.7344 26 26.6667 25.091 26.6667 23.9688V23.1461C26.6823 23.0141 26.6927 22.877 26.6927 22.7348L26.6562 14.5996H28.3229V14.6047Z" fill="black"/>
</g>
<defs>
<clipPath id="clip0_2_53">
<rect width="30" height="26" fill="white"/>
</clipPath>
</defs>
</svg>
