<svg width="47" height="47" viewBox="0 0 47 47" fill="none" xmlns="http://www.w3.org/2000/svg">
<g clip-path="url(#clip0_2_85)">
<path d="M23.5 41.125C36.4801 41.125 47 32.5787 47 22.0313C47 11.4838 36.4801 2.9375 23.5 2.9375C10.5199 2.9375 8.45156e-06 11.4838 8.45156e-06 22.0313C8.45156e-06 26.1713 1.62481 29.9992 4.37872 33.1295C4.20431 35.3785 3.33223 37.3797 2.41427 38.9035C1.90938 39.748 1.39532 40.4273 1.01895 40.8863C0.82618 41.1158 0.679305 41.2902 0.569149 41.4096C0.514071 41.4647 0.477352 41.5106 0.449813 41.5381L0.422274 41.5656C8.45362e-06 41.9879 -0.119327 42.6121 0.110165 43.1629C0.339657 43.7137 0.872079 44.0717 1.46876 44.0717C4.10333 44.0717 6.75626 43.2547 8.95938 42.3C11.0615 41.382 12.8516 40.2897 13.944 39.491C16.8631 40.5467 20.0943 41.1342 23.5 41.1342V41.125ZM25.3359 12.4844V13.7604C26.0244 13.8705 26.6762 14.0266 27.2729 14.1918C28.2551 14.4488 28.8334 15.4586 28.5764 16.4408C28.3193 17.423 27.3096 18.0014 26.3273 17.7443C25.3176 17.4781 24.3445 17.2854 23.4633 17.267C22.7381 17.2578 21.9945 17.4322 21.4897 17.726C21.049 17.983 20.9205 18.24 20.9205 18.5797C20.9205 18.7449 20.9297 18.901 21.407 19.1947C21.9854 19.5436 22.8299 19.8098 24.0049 20.1586L24.0691 20.177C25.0973 20.4891 26.4191 20.8838 27.4748 21.5539C28.659 22.2975 29.7055 23.5092 29.733 25.3727C29.7606 27.2912 28.7691 28.6865 27.4565 29.5035C26.7955 29.9166 26.0611 30.1736 25.3268 30.3297V31.5781C25.3268 32.5879 24.5006 33.4141 23.4908 33.4141C22.4811 33.4141 21.6549 32.5879 21.6549 31.5781V30.2379C20.7094 30.0359 19.819 29.733 19.0662 29.4668C18.8734 29.4025 18.6899 29.3383 18.5063 29.274C17.5424 28.9527 17.0283 27.9154 17.3496 26.9516C17.6709 25.9877 18.7082 25.4736 19.6721 25.7949C19.9016 25.8684 20.1219 25.951 20.333 26.0152C21.5815 26.4375 22.5361 26.7588 23.5551 26.7955C24.3445 26.823 25.0697 26.6486 25.5195 26.3641C25.8959 26.1346 26.0703 25.8592 26.0611 25.4002C26.0611 25.134 25.9877 24.9412 25.5195 24.6475C24.9412 24.2803 24.1059 24.0141 22.9492 23.6652L22.7932 23.6193C21.7926 23.3164 20.535 22.94 19.5252 22.3342C18.3594 21.6273 17.267 20.4523 17.2578 18.598C17.2486 16.6611 18.341 15.3209 19.6262 14.5682C20.2596 14.1918 20.9572 13.9439 21.6641 13.7879V12.4844C21.6641 11.4746 22.4902 10.6484 23.5 10.6484C24.5098 10.6484 25.3359 11.4746 25.3359 12.4844V12.4844Z" fill="black"/>
</g>
<defs>
<clipPath id="clip0_2_85">
<rect width="47" height="47" fill="white"/>
</clipPath>
</defs>
</svg>
