<svg width="26" height="24" viewBox="0 0 26 24" fill="none" xmlns="http://www.w3.org/2000/svg">
<path d="M3.25 0.625C1.45742 0.625 0 2.08242 0 3.875V20.125C0 21.9176 1.45742 23.375 3.25 23.375H22.75C24.5426 23.375 26 21.9176 26 20.125V8.75C26 6.95742 24.5426 5.5 22.75 5.5H4.0625C3.61562 5.5 3.25 5.13438 3.25 4.6875C3.25 4.24062 3.61562 3.875 4.0625 3.875H22.75C23.6488 3.875 24.375 3.14883 24.375 2.25C24.375 1.35117 23.6488 0.625 22.75 0.625H3.25ZM21.125 16.0625C20.2262 16.0625 19.5 15.3363 19.5 14.4375C19.5 13.5387 20.2262 12.8125 21.125 12.8125C22.0238 12.8125 22.75 13.5387 22.75 14.4375C22.75 15.3363 22.0238 16.0625 21.125 16.0625Z" fill="black"/>
</svg>
